<?xml version="1.0" encoding="UTF-8" standalone="no"?> <svg xmlns="http://www.w3.org/2000/svg" xmlns:xlink="http://www.w3.org/1999/xlink" width="196px" height="196px" viewBox="0 0 196 196"> <!-- Generator: Sketch 49.1 (51147) - http://www.bohemiancoding.com/sketch --> <title>Group 2</title> <desc>Created with Sketch.</desc> <defs></defs> <g id="Page-1" stroke="none" stroke-width="1" fill="none" fill-rule="evenodd"> <g id="Group-2"> <rect id="Rectangle" fill="#F2F2F2" x="0" y="0" width="196" height="196"></rect> <g id="20ad_search_result" transform="translate(42.000000, 58.000000)" fill="#000000" fill-rule="nonzero"> <path d="M88.955,0.417 L35.768,0.417 C30.825,0.417 26.803,4.437 26.803,9.378 L26.803,19.105 C26.803,19.934 27.474,20.605 28.303,20.605 C29.132,20.605 29.803,19.934 29.803,19.105 L29.803,9.378 C29.803,6.091 32.479,3.417 35.768,3.417 L88.955,3.417 C92.247,3.417 94.925,6.091 94.925,9.378 L94.925,45.987 C94.925,49.274 92.247,51.948 88.955,51.948 L69.026,51.948 C69.001,51.948 68.977,51.954 68.952,51.955 C68.927,51.954 68.904,51.948 68.878,51.948 L55.838,51.948 C55.01,51.948 54.338,52.62 54.338,53.448 L54.338,68.943 L40.02,68.943 C39.191,68.943 38.52,69.615 38.52,70.443 C38.52,71.271 39.191,71.943 40.02,71.943 L55.839,71.943 L68.879,71.943 L84.711,71.943 C85.539,71.943 86.211,71.271 86.211,70.443 C86.211,69.615 85.539,68.943 84.711,68.943 L70.379,68.943 L70.379,54.948 L88.955,54.948 C93.901,54.948 97.925,50.928 97.925,45.987 L97.925,9.378 C97.925,4.437 93.901,0.417 88.955,0.417 Z M57.339,68.943 L57.339,54.948 L67.379,54.948 L67.379,68.943 L57.339,68.943 Z" id="Shape"></path> <path d="M31.282,65.095 C36.868,65.095 42.431,62.799 46.42,58.302 C46.42,58.302 46.42,58.302 46.42,58.302 C53.819,49.957 53.053,37.15 44.711,29.752 C36.367,22.356 23.561,23.123 16.163,31.461 C9.102,39.426 9.497,51.445 16.799,58.957 L14.34,61.732 L13.772,61.229 C13.153,60.681 12.21,60.737 11.661,61.351 L0.552,73.756 C0.286,74.053 0.149,74.443 0.172,74.84 C0.194,75.237 0.373,75.611 0.67,75.875 L4.163,78.996 C4.449,79.252 4.806,79.378 5.162,79.378 C5.574,79.378 5.984,79.209 6.28,78.878 L17.4,66.453 C17.666,66.156 17.803,65.765 17.78,65.366 C17.757,64.968 17.575,64.595 17.277,64.33 L16.588,63.72 L19.041,60.952 C22.666,63.72 26.978,65.095 31.282,65.095 Z M5.044,75.761 L3.788,74.639 L12.795,64.583 C12.874,64.833 13.014,65.068 13.225,65.254 C13.485,65.484 13.804,65.594 14.126,65.614 L5.044,75.761 Z M18.408,33.452 C21.806,29.622 26.542,27.668 31.301,27.668 C35.366,27.668 39.447,29.095 42.721,31.996 C49.825,38.296 50.478,49.204 44.176,56.311 C37.876,63.414 26.967,64.067 19.862,57.765 C12.76,51.466 12.108,40.559 18.408,33.452 Z" id="Shape"></path> <circle id="Oval" cx="62.475" cy="12.623" r="1.79"></circle> </g> </g> </g> </svg> 