<?xml version="1.0" encoding="UTF-8" standalone="no"?> <svg xmlns="http://www.w3.org/2000/svg" xmlns:xlink="http://www.w3.org/1999/xlink" width="196px" height="196px" viewBox="0 0 196 196"> <!-- Generator: Sketch 49.1 (51147) - http://www.bohemiancoding.com/sketch --> <title>Group 3</title> <desc>Created with Sketch.</desc> <defs></defs> <g id="Page-1" stroke="none" stroke-width="1" fill="none" fill-rule="evenodd"> <g id="Group-3"> <rect id="Rectangle-Copy-2" fill="#F2F2F2" x="0" y="0" width="196" height="196"></rect> <g id="20ad_strategy-copy" transform="translate(46.000000, 54.000000)" fill="#000000" fill-rule="nonzero"> <path d="M56.7869408,0.245882158 C56.2985259,-0.064786104 55.6824691,-0.0818090225 55.1792857,0.199069132 C54.6739926,0.479947286 54.3617446,1.01510528 54.3617446,1.59601238 L54.3617446,10.4436742 L48.2602508,10.4436742 C47.9036974,10.4436742 47.556638,10.5660265 47.2770917,10.7894523 L28.5991785,25.7355747 C28.2204724,26.0387954 28,26.4984142 28,26.9856952 L28,34.6321774 C28,35.0566865 28.1677278,35.4641726 28.467317,35.7642015 C28.7658514,36.0631665 29.1519418,36.212117 29.5918316,36.228076 L49.1052191,36.1046599 C47.020753,37.5409686 44.5016715,39.6103171 41.632366,42.5850721 C36.028781,48.395207 33.1067309,56.909858 31.6425412,63.0306611 C31.5286129,63.505175 31.6372667,64.0073511 31.9379109,64.3914307 C32.2375001,64.7755103 32.696378,65 33.1816282,65 L66.7989183,64.9925525 C67.2862783,64.9925525 67.7462111,64.7659349 68.0468552,64.3786635 C68.3474994,63.9913921 68.4529885,63.4849603 68.3337858,63.0083185 C67.2588511,58.6908809 66.7419541,55.0979811 66.8368944,52.6190186 C66.9033526,50.8805531 67.9909459,49.5102081 69.4952216,47.6121527 C72.2569282,44.1277741 76.0397699,39.3560373 75.9996841,28.7422476 C75.932171,12.6055849 57.5686155,0.74273859 56.7869408,0.245882158 Z M67.0225553,45.6204713 C65.3558264,47.7238656 63.780873,49.7091635 63.673274,52.4966664 C63.5814985,54.9054094 63.9591497,58.028051 64.794624,61.8018192 L35.2217889,61.8092667 C36.7155156,56.327887 39.3580194,49.5197835 43.9003832,44.8108187 C51.4681766,36.9643172 56.1540057,36.0482715 56.1814329,36.0429518 C57.0010838,35.9174078 57.5854938,35.1747829 57.5211454,34.339596 C57.4557421,33.5086648 56.7690076,32.8692414 55.9440823,32.8692414 C55.9409176,32.8692414 55.9377529,32.8692414 55.9335333,32.8692414 L31.1657301,33.0267034 L31.1657301,27.7570462 L48.8119592,13.6365354 L55.9440823,13.6365354 C56.8175326,13.6365354 57.5264199,12.9226367 57.5264199,12.0406368 L57.5264199,4.68673601 C62.3736474,8.40092403 72.7896485,17.6699031 72.8350088,28.7560788 C72.8698203,38.243164 69.6281379,42.3329202 67.0225553,45.6204713 Z" id="Shape"></path> <path d="M69.4027641,70 L31.6494323,70 C30.7666933,70 30.0521965,70.7305407 30.0521965,71.6306711 C30.0521965,71.6806784 30.0617799,71.7274243 30.0660392,71.7752573 C30.0617799,71.8241774 30.0521965,71.8709233 30.0521965,71.9198435 L30.0000201,83.3628062 C29.9978905,83.7954776 30.1650678,84.2129294 30.4653481,84.5205827 C30.7645637,84.8271489 31.1723912,85 31.597256,85 L69.4027641,85 C70.2844383,85 71,84.2694593 71,83.3693289 L71,71.6893753 C71,71.6795912 70.9968055,71.6698072 70.9968055,71.6600232 C70.9968055,71.6502392 71,71.6404551 71,71.6306711 C71,70.7305407 70.2844383,70 69.4027641,70 Z M33.2019456,81.740832 L33.2402793,73.2613422 L67.8055283,73.2613422 L67.8055283,81.740832 L33.2019456,81.740832 Z" id="Shape"></path> <path d="M16.5273317,55.4707198 C15.9010328,54.8430934 14.8839662,54.8430934 14.2565968,55.4707198 L8.4989294,61.229674 L2.74126204,55.4707198 C2.11389256,54.8430934 1.096826,54.8430934 0.470527111,55.4707198 C-0.15684237,56.0983462 -0.15684237,57.1147582 0.470527111,57.7423846 L6.22819447,63.5002678 L0.470527111,69.2581509 C-0.15684237,69.8857773 -0.15684237,70.9021893 0.470527111,71.5298157 C0.783141256,71.8436289 1.19532086,72 1.60642988,72 C2.01753889,72 2.4286479,71.8436289 2.74233264,71.5298157 L8.5,65.7708616 L14.2576674,71.5298157 C14.5713521,71.8436289 14.9824611,72 15.3935701,72 C15.8046791,72 16.2157881,71.8436289 16.5294729,71.5298157 C17.1568424,70.9021893 17.1568424,69.8857773 16.5294729,69.2581509 L10.7718055,63.5002678 L16.5294729,57.7423846 C17.1547012,57.1147582 17.1547012,56.0972752 16.5273317,55.4707198 Z" id="Shape"></path> <path d="M94,37 C88.4866444,37 84,41.485601 84,46.9989566 C84,52.5133556 88.4866444,57 94,57 C99.5133556,57 104,52.5133556 104,46.9989566 C104,41.485601 99.5133556,37 94,37 Z M94,53.869783 C90.211394,53.869783 87.130217,50.7875626 87.130217,46.9989566 C87.130217,43.211394 90.211394,40.130217 94,40.130217 C97.788606,40.130217 100.869783,43.211394 100.869783,46.9989566 C100.869783,50.7875626 97.788606,53.869783 94,53.869783 Z" id="Shape"></path> </g> </g> </g> </svg> 